
<svg xmlns="http://www.w3.org/2000/svg"  viewBox="0 0 1000 527.2352734922863" style="overflow: hidden;border: 2px solid #888888;"> 
<circle cx="320.787608" cy="107.955151" r="6.869302" style="fill:rgb(0,0,0);stroke:black;stroke-width:5;fill-rule:evenodd;" />
<circle cx="474.715105" cy="25.247840" r="6.869302" style="fill:rgb(0,0,0);stroke:black;stroke-width:5;fill-rule:evenodd;" />
<circle cx="651.616855" cy="6.868437" r="6.869302" style="fill:rgb(0,0,0);stroke:black;stroke-width:5;fill-rule:evenodd;" />
<circle cx="647.022005" cy="206.744440" r="6.869302" style="fill:rgb(0,0,0);stroke:black;stroke-width:5;fill-rule:evenodd;" />
<circle cx="674.591108" cy="319.318281" r="6.869302" style="fill:rgb(0,0,0);stroke:black;stroke-width:5;fill-rule:evenodd;" />
<circle cx="481.607381" cy="349.184811" r="6.869302" style="fill:rgb(0,0,0);stroke:black;stroke-width:5;fill-rule:evenodd;" />
<circle cx="295.515930" cy="245.800671" r="6.869302" style="fill:rgb(0,0,0);stroke:black;stroke-width:5;fill-rule:evenodd;" />
<polyline points="320,107 295,245 481,349 674,319 647,206 651,6 474,25 320,107 " style="fill:none;stroke:rgb(0,0,255);stroke-width:5;fill-rule:evenodd;" />
<circle cx="566.612118" cy="169.985635" r="6.869302" style="fill:rgb(0,0,0);stroke:black;stroke-width:5;fill-rule:evenodd;" />
<polyline points="651,6 566,169 647,206 " style="fill:none;stroke:rgb(0,0,0);stroke-width:5;fill-rule:evenodd;" stroke-dasharray="10,10"/>
<polyline points="320,107 295,245 481,349 566,169 674,319 647,206 651,6 474,25 320,107 " style="fill:none;stroke:rgb(255,0,0);stroke-width:5;fill-rule:evenodd;" />
<text dominant-baseline="middle"  x="460.457354" y="143.232249" font-size="15"></text>

</svg>



