
<svg xmlns="http://www.w3.org/2000/svg"  viewBox="0 0 1000 460.94649410855703" style="overflow: hidden;border: 2px solid #888888;"> 
<circle cx="344.865403" cy="163.933832" r="6.005631" style="fill:rgb(0,0,0);stroke:black;stroke-width:5;fill-rule:evenodd;" />
<circle cx="479.439745" cy="91.625231" r="6.005631" style="fill:rgb(0,0,0);stroke:black;stroke-width:5;fill-rule:evenodd;" />
<circle cx="634.099810" cy="75.556653" r="6.005631" style="fill:rgb(0,0,0);stroke:black;stroke-width:5;fill-rule:evenodd;" />
<circle cx="630.082666" cy="250.302440" r="6.005631" style="fill:rgb(0,0,0);stroke:black;stroke-width:5;fill-rule:evenodd;" />
<circle cx="654.185533" cy="348.722481" r="6.005631" style="fill:rgb(0,0,0);stroke:black;stroke-width:5;fill-rule:evenodd;" />
<circle cx="485.465462" cy="374.833921" r="6.005631" style="fill:rgb(0,0,0);stroke:black;stroke-width:5;fill-rule:evenodd;" />
<circle cx="322.771108" cy="284.448169" r="6.005631" style="fill:rgb(0,0,0);stroke:black;stroke-width:5;fill-rule:evenodd;" />
<polyline points="344,163 322,284 485,374 654,348 630,250 634,75 479,91 344,163 " style="fill:none;stroke:rgb(0,0,255);stroke-width:5;fill-rule:evenodd;" />
<circle cx="559.782636" cy="218.165284" r="6.005631" style="fill:rgb(0,0,0);stroke:black;stroke-width:5;fill-rule:evenodd;" />
<polyline points="654,348 559,218 485,374 " style="fill:none;stroke:rgb(0,0,0);stroke-width:5;fill-rule:evenodd;" stroke-dasharray="10,10"/>
<polyline points="344,163 322,284 485,374 559,218 654,348 630,250 634,75 479,91 344,163 " style="fill:none;stroke:rgb(255,0,0);stroke-width:5;fill-rule:evenodd;" />

</svg>



